<mxfile host="app.diagrams.net" agent="Mozilla/5.0 (Windows NT 10.0; Win64; x64) AppleWebKit/537.36 (KHTML, like Gecko) Chrome/130.0.0.0 Safari/537.36" version="24.8.3">
  <diagram id="C5RBs43oDa-KdzZeNtuy" name="Page-1">
    <mxGraphModel dx="1714" dy="874" grid="1" gridSize="10" guides="1" tooltips="1" connect="1" arrows="1" fold="1" page="1" pageScale="1" pageWidth="827" pageHeight="1169" math="0" shadow="0">
      <root>
        <mxCell id="WIyWlLk6GJQsqaUBKTNV-0" />
        <mxCell id="WIyWlLk6GJQsqaUBKTNV-1" parent="WIyWlLk6GJQsqaUBKTNV-0" />
        <mxCell id="n8c2q8WWlcSVnIIADXBf-35" value="No" style="edgeStyle=orthogonalEdgeStyle;rounded=0;html=1;jettySize=auto;orthogonalLoop=1;fontSize=11;endArrow=block;endFill=0;endSize=8;strokeWidth=1;shadow=0;labelBackgroundColor=none;fontStyle=0" parent="WIyWlLk6GJQsqaUBKTNV-1" source="n8c2q8WWlcSVnIIADXBf-37" target="n8c2q8WWlcSVnIIADXBf-39" edge="1">
          <mxGeometry y="10" relative="1" as="geometry">
            <mxPoint as="offset" />
          </mxGeometry>
        </mxCell>
        <mxCell id="n8c2q8WWlcSVnIIADXBf-36" style="edgeStyle=orthogonalEdgeStyle;rounded=0;orthogonalLoop=1;jettySize=auto;html=1;exitX=0.5;exitY=1;exitDx=0;exitDy=0;entryX=0.5;entryY=0;entryDx=0;entryDy=0;fontStyle=0" parent="WIyWlLk6GJQsqaUBKTNV-1" source="n8c2q8WWlcSVnIIADXBf-37" target="n8c2q8WWlcSVnIIADXBf-41" edge="1">
          <mxGeometry relative="1" as="geometry" />
        </mxCell>
        <mxCell id="n8c2q8WWlcSVnIIADXBf-37" value="Registered?" style="rhombus;whiteSpace=wrap;html=1;shadow=0;fontFamily=Helvetica;fontSize=12;align=center;strokeWidth=1;spacing=6;spacingTop=-4;fontStyle=0" parent="WIyWlLk6GJQsqaUBKTNV-1" vertex="1">
          <mxGeometry x="330" y="247" width="100" height="80" as="geometry" />
        </mxCell>
        <mxCell id="n8c2q8WWlcSVnIIADXBf-38" style="edgeStyle=orthogonalEdgeStyle;rounded=0;orthogonalLoop=1;jettySize=auto;html=1;exitX=0.5;exitY=1;exitDx=0;exitDy=0;entryX=1;entryY=0.5;entryDx=0;entryDy=0;fontStyle=0" parent="WIyWlLk6GJQsqaUBKTNV-1" source="n8c2q8WWlcSVnIIADXBf-39" target="n8c2q8WWlcSVnIIADXBf-41" edge="1">
          <mxGeometry relative="1" as="geometry">
            <Array as="points">
              <mxPoint x="540" y="387" />
            </Array>
          </mxGeometry>
        </mxCell>
        <mxCell id="n8c2q8WWlcSVnIIADXBf-39" value="User Registration&lt;br&gt;&lt;i&gt;&lt;font style=&quot;font-size: 10px;&quot;&gt;(Name, email, phone)&lt;/font&gt;&lt;/i&gt;" style="rounded=1;whiteSpace=wrap;html=1;fontSize=12;glass=0;strokeWidth=3;shadow=0;fillColor=#a0522d;strokeColor=#67AB9F;fontStyle=0;fontColor=#ffffff;" parent="WIyWlLk6GJQsqaUBKTNV-1" vertex="1">
          <mxGeometry x="480" y="257" width="101" height="60" as="geometry" />
        </mxCell>
        <mxCell id="n8c2q8WWlcSVnIIADXBf-40" style="edgeStyle=orthogonalEdgeStyle;rounded=0;orthogonalLoop=1;jettySize=auto;html=1;exitX=0.5;exitY=1;exitDx=0;exitDy=0;entryX=0.5;entryY=0;entryDx=0;entryDy=0;fontStyle=0" parent="WIyWlLk6GJQsqaUBKTNV-1" source="n8c2q8WWlcSVnIIADXBf-41" target="n8c2q8WWlcSVnIIADXBf-42" edge="1">
          <mxGeometry relative="1" as="geometry" />
        </mxCell>
        <mxCell id="n8c2q8WWlcSVnIIADXBf-41" value="Log In&amp;nbsp;" style="rounded=1;whiteSpace=wrap;html=1;shadow=0;fontFamily=Helvetica;fontSize=12;align=center;strokeWidth=0;spacing=6;spacingTop=-4;fillColor=#a0522d;strokeColor=#6D1F00;fontColor=#ffffff;fontStyle=0" parent="WIyWlLk6GJQsqaUBKTNV-1" vertex="1">
          <mxGeometry x="330" y="367" width="100" height="40" as="geometry" />
        </mxCell>
        <mxCell id="n8c2q8WWlcSVnIIADXBf-42" value="Fetch available food delivery applications" style="rounded=1;whiteSpace=wrap;html=1;fontSize=12;glass=0;strokeWidth=0;shadow=0;fillColor=#a0522d;strokeColor=#6D1F00;fontColor=#ffffff;fontStyle=0" parent="WIyWlLk6GJQsqaUBKTNV-1" vertex="1">
          <mxGeometry x="320" y="427" width="120" height="67" as="geometry" />
        </mxCell>
        <mxCell id="n8c2q8WWlcSVnIIADXBf-43" style="edgeStyle=orthogonalEdgeStyle;rounded=0;orthogonalLoop=1;jettySize=auto;html=1;entryX=0.5;entryY=0;entryDx=0;entryDy=0;fontStyle=0" parent="WIyWlLk6GJQsqaUBKTNV-1" source="n8c2q8WWlcSVnIIADXBf-45" target="n8c2q8WWlcSVnIIADXBf-37" edge="1">
          <mxGeometry relative="1" as="geometry" />
        </mxCell>
        <mxCell id="n8c2q8WWlcSVnIIADXBf-44" value="" style="edgeStyle=orthogonalEdgeStyle;rounded=0;orthogonalLoop=1;jettySize=auto;html=1;fontStyle=0" parent="WIyWlLk6GJQsqaUBKTNV-1" source="n8c2q8WWlcSVnIIADXBf-45" target="n8c2q8WWlcSVnIIADXBf-37" edge="1">
          <mxGeometry relative="1" as="geometry" />
        </mxCell>
        <mxCell id="n8c2q8WWlcSVnIIADXBf-45" value="User opens mobile app" style="shape=umlActor;verticalLabelPosition=bottom;verticalAlign=top;html=1;outlineConnect=0;fontStyle=0" parent="WIyWlLk6GJQsqaUBKTNV-1" vertex="1">
          <mxGeometry x="365" y="130" width="30" height="60" as="geometry" />
        </mxCell>
        <mxCell id="n8c2q8WWlcSVnIIADXBf-46" value="Request permissions to fetch sessions information for available services" style="rounded=1;whiteSpace=wrap;html=1;fontSize=12;glass=0;strokeWidth=3;shadow=0;fillColor=#a0522d;strokeColor=#67AB9F;fontStyle=0;fontColor=#ffffff;" parent="WIyWlLk6GJQsqaUBKTNV-1" vertex="1">
          <mxGeometry x="445.25" y="737" width="170.5" height="70" as="geometry" />
        </mxCell>
        <mxCell id="n8c2q8WWlcSVnIIADXBf-47" value="" style="rounded=0;html=1;jettySize=auto;orthogonalLoop=1;fontSize=11;endArrow=block;endFill=0;endSize=8;strokeWidth=1;shadow=0;labelBackgroundColor=none;edgeStyle=orthogonalEdgeStyle;exitX=0.5;exitY=1;exitDx=0;exitDy=0;fontStyle=0" parent="WIyWlLk6GJQsqaUBKTNV-1" source="n8c2q8WWlcSVnIIADXBf-42" target="n8c2q8WWlcSVnIIADXBf-49" edge="1">
          <mxGeometry y="20" relative="1" as="geometry">
            <mxPoint as="offset" />
            <mxPoint x="380" y="487" as="sourcePoint" />
            <mxPoint x="380" y="567" as="targetPoint" />
          </mxGeometry>
        </mxCell>
        <mxCell id="n8c2q8WWlcSVnIIADXBf-48" style="edgeStyle=orthogonalEdgeStyle;rounded=0;orthogonalLoop=1;jettySize=auto;html=1;entryX=0;entryY=0.5;entryDx=0;entryDy=0;fontStyle=0" parent="WIyWlLk6GJQsqaUBKTNV-1" source="n8c2q8WWlcSVnIIADXBf-49" target="n8c2q8WWlcSVnIIADXBf-52" edge="1">
          <mxGeometry relative="1" as="geometry">
            <mxPoint x="501" y="557" as="targetPoint" />
          </mxGeometry>
        </mxCell>
        <mxCell id="n8c2q8WWlcSVnIIADXBf-49" value="New&amp;nbsp;&lt;div&gt;food app&amp;nbsp;&lt;/div&gt;&lt;div&gt;found?&lt;/div&gt;" style="rhombus;whiteSpace=wrap;html=1;shadow=0;fontFamily=Helvetica;fontSize=12;align=center;strokeWidth=1;spacing=6;spacingTop=-4;fontStyle=0" parent="WIyWlLk6GJQsqaUBKTNV-1" vertex="1">
          <mxGeometry x="330" y="517" width="100" height="80" as="geometry" />
        </mxCell>
        <mxCell id="n8c2q8WWlcSVnIIADXBf-50" value="No" style="text;html=1;align=center;verticalAlign=middle;resizable=0;points=[];autosize=1;strokeColor=none;fillColor=none;fontStyle=0" parent="WIyWlLk6GJQsqaUBKTNV-1" vertex="1">
          <mxGeometry x="371" y="605" width="40" height="30" as="geometry" />
        </mxCell>
        <mxCell id="n8c2q8WWlcSVnIIADXBf-51" style="edgeStyle=orthogonalEdgeStyle;rounded=0;orthogonalLoop=1;jettySize=auto;html=1;exitX=0.5;exitY=1;exitDx=0;exitDy=0;entryX=0.5;entryY=0;entryDx=0;entryDy=0;fontStyle=0" parent="WIyWlLk6GJQsqaUBKTNV-1" source="n8c2q8WWlcSVnIIADXBf-52" target="n8c2q8WWlcSVnIIADXBf-54" edge="1">
          <mxGeometry relative="1" as="geometry" />
        </mxCell>
        <mxCell id="n8c2q8WWlcSVnIIADXBf-52" value="Ask user for confirmation to add that app to list" style="rounded=1;whiteSpace=wrap;html=1;fontSize=12;glass=0;strokeWidth=0;shadow=0;fillColor=#a0522d;strokeColor=#6D1F00;fontStyle=0;fontColor=#ffffff;" parent="WIyWlLk6GJQsqaUBKTNV-1" vertex="1">
          <mxGeometry x="460.75" y="527" width="139.5" height="60" as="geometry" />
        </mxCell>
        <mxCell id="n8c2q8WWlcSVnIIADXBf-53" style="edgeStyle=orthogonalEdgeStyle;rounded=0;orthogonalLoop=1;jettySize=auto;html=1;exitX=0.5;exitY=1;exitDx=0;exitDy=0;entryX=0.5;entryY=0;entryDx=0;entryDy=0;fontStyle=0" parent="WIyWlLk6GJQsqaUBKTNV-1" source="n8c2q8WWlcSVnIIADXBf-54" target="n8c2q8WWlcSVnIIADXBf-46" edge="1">
          <mxGeometry relative="1" as="geometry" />
        </mxCell>
        <mxCell id="n8c2q8WWlcSVnIIADXBf-54" value="User agrees?" style="rhombus;whiteSpace=wrap;html=1;shadow=0;fontFamily=Helvetica;fontSize=12;align=center;strokeWidth=1;spacing=6;spacingTop=-4;fontStyle=0" parent="WIyWlLk6GJQsqaUBKTNV-1" vertex="1">
          <mxGeometry x="490.5" y="627" width="80" height="80" as="geometry" />
        </mxCell>
        <mxCell id="n8c2q8WWlcSVnIIADXBf-55" value="" style="edgeStyle=orthogonalEdgeStyle;rounded=0;orthogonalLoop=1;jettySize=auto;html=1;fontStyle=0" parent="WIyWlLk6GJQsqaUBKTNV-1" source="n8c2q8WWlcSVnIIADXBf-56" target="n8c2q8WWlcSVnIIADXBf-63" edge="1">
          <mxGeometry relative="1" as="geometry" />
        </mxCell>
        <mxCell id="n8c2q8WWlcSVnIIADXBf-56" value="Present welcome screen &lt;br&gt;(searchbox, available food services)" style="rounded=1;whiteSpace=wrap;html=1;fontSize=12;glass=0;strokeWidth=3;shadow=0;fillColor=#a0522d;strokeColor=#67AB9F;fontStyle=0;fontColor=#ffffff;" parent="WIyWlLk6GJQsqaUBKTNV-1" vertex="1">
          <mxGeometry x="681" y="167" width="170" height="60" as="geometry" />
        </mxCell>
        <mxCell id="n8c2q8WWlcSVnIIADXBf-57" style="edgeStyle=orthogonalEdgeStyle;rounded=0;orthogonalLoop=1;jettySize=auto;html=1;exitX=0.5;exitY=1;exitDx=0;exitDy=0;entryX=0.5;entryY=0;entryDx=0;entryDy=0;fontStyle=0" parent="WIyWlLk6GJQsqaUBKTNV-1" source="n8c2q8WWlcSVnIIADXBf-49" target="n8c2q8WWlcSVnIIADXBf-56" edge="1">
          <mxGeometry relative="1" as="geometry">
            <mxPoint x="736" y="166" as="targetPoint" />
            <Array as="points">
              <mxPoint x="380" y="827" />
              <mxPoint x="641" y="827" />
              <mxPoint x="641" y="147" />
              <mxPoint x="766" y="147" />
            </Array>
          </mxGeometry>
        </mxCell>
        <mxCell id="n8c2q8WWlcSVnIIADXBf-58" value="Yes" style="text;html=1;align=center;verticalAlign=middle;resizable=0;points=[];autosize=1;strokeColor=none;fillColor=none;fontStyle=0" parent="WIyWlLk6GJQsqaUBKTNV-1" vertex="1">
          <mxGeometry x="530.5" y="707" width="40" height="30" as="geometry" />
        </mxCell>
        <mxCell id="n8c2q8WWlcSVnIIADXBf-59" value="No" style="text;html=1;align=center;verticalAlign=middle;resizable=0;points=[];autosize=1;strokeColor=none;fillColor=none;fontStyle=0" parent="WIyWlLk6GJQsqaUBKTNV-1" vertex="1">
          <mxGeometry x="581" y="643" width="40" height="30" as="geometry" />
        </mxCell>
        <mxCell id="n8c2q8WWlcSVnIIADXBf-60" value="" style="endArrow=none;html=1;rounded=0;exitX=1;exitY=0.5;exitDx=0;exitDy=0;fontStyle=0" parent="WIyWlLk6GJQsqaUBKTNV-1" source="n8c2q8WWlcSVnIIADXBf-54" edge="1">
          <mxGeometry width="50" height="50" relative="1" as="geometry">
            <mxPoint x="571" y="643" as="sourcePoint" />
            <mxPoint x="641" y="667" as="targetPoint" />
          </mxGeometry>
        </mxCell>
        <mxCell id="n8c2q8WWlcSVnIIADXBf-61" value="" style="endArrow=none;html=1;rounded=0;fontStyle=0;exitX=1;exitY=0.5;exitDx=0;exitDy=0;" parent="WIyWlLk6GJQsqaUBKTNV-1" edge="1" source="n8c2q8WWlcSVnIIADXBf-46">
          <mxGeometry width="50" height="50" relative="1" as="geometry">
            <mxPoint x="620" y="772" as="sourcePoint" />
            <mxPoint x="641" y="772" as="targetPoint" />
          </mxGeometry>
        </mxCell>
        <mxCell id="n8c2q8WWlcSVnIIADXBf-62" value="" style="edgeStyle=orthogonalEdgeStyle;rounded=0;orthogonalLoop=1;jettySize=auto;html=1;fontStyle=0" parent="WIyWlLk6GJQsqaUBKTNV-1" source="n8c2q8WWlcSVnIIADXBf-63" target="n8c2q8WWlcSVnIIADXBf-65" edge="1">
          <mxGeometry relative="1" as="geometry" />
        </mxCell>
        <mxCell id="n8c2q8WWlcSVnIIADXBf-63" value="User search for menu item&lt;br&gt;(using fuzzy logic)" style="rounded=1;whiteSpace=wrap;html=1;fontSize=12;glass=0;strokeWidth=0;shadow=0;fillColor=#a0522d;strokeColor=#6D1F00;fontStyle=0;fontColor=#ffffff;" parent="WIyWlLk6GJQsqaUBKTNV-1" vertex="1">
          <mxGeometry x="681" y="257" width="170" height="60" as="geometry" />
        </mxCell>
        <mxCell id="n8c2q8WWlcSVnIIADXBf-64" value="" style="edgeStyle=orthogonalEdgeStyle;rounded=0;orthogonalLoop=1;jettySize=auto;html=1;fontStyle=0" parent="WIyWlLk6GJQsqaUBKTNV-1" source="n8c2q8WWlcSVnIIADXBf-65" target="n8c2q8WWlcSVnIIADXBf-67" edge="1">
          <mxGeometry relative="1" as="geometry" />
        </mxCell>
        <mxCell id="n8c2q8WWlcSVnIIADXBf-65" value="Fetch all menu items from multiple applications that are relevant" style="rounded=1;whiteSpace=wrap;html=1;fontSize=12;glass=0;strokeWidth=0;shadow=0;fillColor=#a0522d;strokeColor=#6D1F00;fontStyle=0;fontColor=#ffffff;" parent="WIyWlLk6GJQsqaUBKTNV-1" vertex="1">
          <mxGeometry x="681" y="347" width="170" height="60" as="geometry" />
        </mxCell>
        <mxCell id="n8c2q8WWlcSVnIIADXBf-66" value="" style="edgeStyle=orthogonalEdgeStyle;rounded=0;orthogonalLoop=1;jettySize=auto;html=1;fontStyle=0" parent="WIyWlLk6GJQsqaUBKTNV-1" source="n8c2q8WWlcSVnIIADXBf-67" target="n8c2q8WWlcSVnIIADXBf-69" edge="1">
          <mxGeometry relative="1" as="geometry" />
        </mxCell>
        <mxCell id="n8c2q8WWlcSVnIIADXBf-67" value="Display item details from all available food delivery apps&amp;nbsp;&amp;nbsp;" style="rounded=1;whiteSpace=wrap;html=1;fontSize=12;glass=0;strokeWidth=3;shadow=0;fillColor=#a0522d;strokeColor=#67AB9F;fontStyle=0;fontColor=#ffffff;" parent="WIyWlLk6GJQsqaUBKTNV-1" vertex="1">
          <mxGeometry x="681" y="437" width="170" height="60" as="geometry" />
        </mxCell>
        <mxCell id="n8c2q8WWlcSVnIIADXBf-68" value="" style="edgeStyle=orthogonalEdgeStyle;rounded=0;orthogonalLoop=1;jettySize=auto;html=1;fontStyle=0" parent="WIyWlLk6GJQsqaUBKTNV-1" source="n8c2q8WWlcSVnIIADXBf-69" target="n8c2q8WWlcSVnIIADXBf-71" edge="1">
          <mxGeometry relative="1" as="geometry" />
        </mxCell>
        <mxCell id="n8c2q8WWlcSVnIIADXBf-69" value="User chooses an item from UberEats for discounted rate" style="rounded=1;whiteSpace=wrap;html=1;fontSize=12;glass=0;strokeWidth=2;shadow=0;fillColor=#a0522d;strokeColor=#6D1F00;fontStyle=0;fontColor=#ffffff;" parent="WIyWlLk6GJQsqaUBKTNV-1" vertex="1">
          <mxGeometry x="681" y="527" width="170" height="60" as="geometry" />
        </mxCell>
        <mxCell id="n8c2q8WWlcSVnIIADXBf-70" value="" style="edgeStyle=orthogonalEdgeStyle;rounded=0;orthogonalLoop=1;jettySize=auto;html=1;fontStyle=0" parent="WIyWlLk6GJQsqaUBKTNV-1" source="n8c2q8WWlcSVnIIADXBf-71" target="n8c2q8WWlcSVnIIADXBf-73" edge="1">
          <mxGeometry relative="1" as="geometry" />
        </mxCell>
        <mxCell id="n8c2q8WWlcSVnIIADXBf-71" value="User is navigated to checkout page to select quantity of items selected" style="rounded=1;whiteSpace=wrap;html=1;fontSize=12;glass=0;strokeWidth=3;shadow=0;fillColor=#a0522d;strokeColor=#67AB9F;fontStyle=0;fontColor=#ffffff;" parent="WIyWlLk6GJQsqaUBKTNV-1" vertex="1">
          <mxGeometry x="681" y="627" width="170" height="60" as="geometry" />
        </mxCell>
        <mxCell id="n8c2q8WWlcSVnIIADXBf-72" style="edgeStyle=orthogonalEdgeStyle;rounded=0;orthogonalLoop=1;jettySize=auto;html=1;exitX=0.5;exitY=1;exitDx=0;exitDy=0;entryX=0;entryY=0.5;entryDx=0;entryDy=0;fontStyle=0" parent="WIyWlLk6GJQsqaUBKTNV-1" source="n8c2q8WWlcSVnIIADXBf-73" target="n8c2q8WWlcSVnIIADXBf-76" edge="1">
          <mxGeometry relative="1" as="geometry">
            <Array as="points">
              <mxPoint x="766" y="827" />
              <mxPoint x="871" y="827" />
              <mxPoint x="871" y="467" />
            </Array>
          </mxGeometry>
        </mxCell>
        <mxCell id="n8c2q8WWlcSVnIIADXBf-73" value="Modifies the quantity as per requirement and clicks &#39;Proceed to UberEats&#39;" style="rounded=1;whiteSpace=wrap;html=1;fontSize=12;glass=0;strokeWidth=2;shadow=0;fillColor=#a0522d;strokeColor=#6D1F00;fontStyle=0;fontColor=#ffffff;" parent="WIyWlLk6GJQsqaUBKTNV-1" vertex="1">
          <mxGeometry x="681" y="717" width="170" height="60" as="geometry" />
        </mxCell>
        <mxCell id="n8c2q8WWlcSVnIIADXBf-74" style="edgeStyle=orthogonalEdgeStyle;rounded=0;orthogonalLoop=1;jettySize=auto;html=1;exitX=1;exitY=0.5;exitDx=0;exitDy=0;entryX=0.5;entryY=0;entryDx=0;entryDy=0;fontStyle=0" parent="WIyWlLk6GJQsqaUBKTNV-1" source="n8c2q8WWlcSVnIIADXBf-76" target="n8c2q8WWlcSVnIIADXBf-78" edge="1">
          <mxGeometry relative="1" as="geometry">
            <mxPoint x="1121" y="197" as="targetPoint" />
            <Array as="points">
              <mxPoint x="1091" y="467" />
              <mxPoint x="1091" y="147" />
              <mxPoint x="1196" y="147" />
            </Array>
          </mxGeometry>
        </mxCell>
        <mxCell id="n8c2q8WWlcSVnIIADXBf-75" style="edgeStyle=orthogonalEdgeStyle;rounded=0;orthogonalLoop=1;jettySize=auto;html=1;fontStyle=0" parent="WIyWlLk6GJQsqaUBKTNV-1" source="n8c2q8WWlcSVnIIADXBf-76" edge="1">
          <mxGeometry relative="1" as="geometry">
            <mxPoint x="981" y="347" as="targetPoint" />
          </mxGeometry>
        </mxCell>
        <mxCell id="n8c2q8WWlcSVnIIADXBf-76" value="DeliverEase triggers the&amp;nbsp;&lt;div&gt;launch of&amp;nbsp;&amp;nbsp;&lt;span style=&quot;background-color: initial;&quot;&gt;UberEats app&lt;/span&gt;&lt;/div&gt;&lt;div&gt;&lt;span style=&quot;background-color: initial;&quot;&gt;and provides all the checkout information&amp;nbsp;&lt;/span&gt;&lt;/div&gt;" style="shape=parallelogram;perimeter=parallelogramPerimeter;whiteSpace=wrap;html=1;fixedSize=1;fontStyle=0" parent="WIyWlLk6GJQsqaUBKTNV-1" vertex="1">
          <mxGeometry x="881" y="427" width="200" height="80" as="geometry" />
        </mxCell>
        <mxCell id="n8c2q8WWlcSVnIIADXBf-77" value="" style="edgeStyle=orthogonalEdgeStyle;rounded=0;orthogonalLoop=1;jettySize=auto;html=1;fontStyle=0" parent="WIyWlLk6GJQsqaUBKTNV-1" source="n8c2q8WWlcSVnIIADXBf-78" target="n8c2q8WWlcSVnIIADXBf-80" edge="1">
          <mxGeometry relative="1" as="geometry" />
        </mxCell>
        <mxCell id="n8c2q8WWlcSVnIIADXBf-78" value="Once order is placed, the control returns to DeliverEase&lt;br&gt;User can see order info" style="rounded=1;whiteSpace=wrap;html=1;fontSize=12;glass=0;strokeWidth=2;shadow=0;fillColor=#a0522d;strokeColor=#67AB9F;fontStyle=0;fontColor=#ffffff;" parent="WIyWlLk6GJQsqaUBKTNV-1" vertex="1">
          <mxGeometry x="1111" y="167" width="170" height="60" as="geometry" />
        </mxCell>
        <mxCell id="n8c2q8WWlcSVnIIADXBf-79" value="" style="edgeStyle=orthogonalEdgeStyle;rounded=0;orthogonalLoop=1;jettySize=auto;html=1;fontStyle=0" parent="WIyWlLk6GJQsqaUBKTNV-1" source="n8c2q8WWlcSVnIIADXBf-80" target="n8c2q8WWlcSVnIIADXBf-81" edge="1">
          <mxGeometry relative="1" as="geometry" />
        </mxCell>
        <mxCell id="n8c2q8WWlcSVnIIADXBf-80" value="User is redirected to the order status page where user can track the status" style="rounded=1;whiteSpace=wrap;html=1;fontSize=12;glass=0;strokeWidth=2;shadow=0;fillColor=#a0522d;strokeColor=#67AB9F;fontStyle=0;fontColor=#ffffff;" parent="WIyWlLk6GJQsqaUBKTNV-1" vertex="1">
          <mxGeometry x="1111" y="257" width="170" height="60" as="geometry" />
        </mxCell>
        <mxCell id="n8c2q8WWlcSVnIIADXBf-81" value="The user will be notified about the stages of the order (confirmed, delivered, )&amp;nbsp;" style="rounded=1;whiteSpace=wrap;html=1;fontSize=12;glass=0;strokeWidth=2;shadow=0;fillColor=#a0522d;strokeColor=#6D1F00;fontStyle=0;fontColor=#ffffff;" parent="WIyWlLk6GJQsqaUBKTNV-1" vertex="1">
          <mxGeometry x="1111" y="347" width="170" height="60" as="geometry" />
        </mxCell>
        <mxCell id="n8c2q8WWlcSVnIIADXBf-82" value="Database" style="shape=cylinder3;whiteSpace=wrap;html=1;boundedLbl=1;backgroundOutline=1;size=15;fontStyle=0" parent="WIyWlLk6GJQsqaUBKTNV-1" vertex="1">
          <mxGeometry x="951" y="257" width="60" height="80" as="geometry" />
        </mxCell>
        <mxCell id="n8c2q8WWlcSVnIIADXBf-83" value="&lt;h1 style=&quot;margin-top: 0px;&quot;&gt;&lt;span style=&quot;background-color: initial;&quot;&gt;DeliverEase DB&lt;/span&gt;&lt;/h1&gt;" style="text;html=1;whiteSpace=wrap;overflow=hidden;rounded=0;fontStyle=0" parent="WIyWlLk6GJQsqaUBKTNV-1" vertex="1">
          <mxGeometry x="881" y="177" width="200" height="40" as="geometry" />
        </mxCell>
        <mxCell id="n8c2q8WWlcSVnIIADXBf-84" value="&lt;h1 style=&quot;text-align: left; margin-top: 0px;&quot;&gt;&lt;span style=&quot;font-size: 12px;&quot;&gt;Saves order history for each user&amp;nbsp;&lt;/span&gt;&lt;/h1&gt;" style="text;html=1;align=center;verticalAlign=middle;whiteSpace=wrap;rounded=0;fontStyle=0" parent="WIyWlLk6GJQsqaUBKTNV-1" vertex="1">
          <mxGeometry x="851" y="207" width="240" height="30" as="geometry" />
        </mxCell>
        <mxCell id="n8c2q8WWlcSVnIIADXBf-85" value="" style="endArrow=none;dashed=1;html=1;rounded=0;entryX=0.5;entryY=1;entryDx=0;entryDy=0;fontStyle=0" parent="WIyWlLk6GJQsqaUBKTNV-1" target="n8c2q8WWlcSVnIIADXBf-81" edge="1">
          <mxGeometry width="50" height="50" relative="1" as="geometry">
            <mxPoint x="1196" y="477" as="sourcePoint" />
            <mxPoint x="1201" y="437" as="targetPoint" />
          </mxGeometry>
        </mxCell>
        <mxCell id="n8c2q8WWlcSVnIIADXBf-86" value="" style="shape=mxgraph.signs.sports.dirt_bike;html=1;pointerEvents=1;fillColor=#000000;strokeColor=none;verticalLabelPosition=bottom;verticalAlign=top;align=center;fontStyle=0" parent="WIyWlLk6GJQsqaUBKTNV-1" vertex="1">
          <mxGeometry x="1161" y="487" width="70" height="64" as="geometry" />
        </mxCell>
        <mxCell id="n8c2q8WWlcSVnIIADXBf-87" value="" style="edgeStyle=orthogonalEdgeStyle;rounded=0;orthogonalLoop=1;jettySize=auto;html=1;fontStyle=0" parent="WIyWlLk6GJQsqaUBKTNV-1" source="n8c2q8WWlcSVnIIADXBf-88" target="n8c2q8WWlcSVnIIADXBf-90" edge="1">
          <mxGeometry relative="1" as="geometry" />
        </mxCell>
        <mxCell id="n8c2q8WWlcSVnIIADXBf-88" value="User receives the order&lt;br&gt;Notification sent to the user" style="rounded=1;whiteSpace=wrap;html=1;fontSize=12;glass=0;strokeWidth=2;shadow=0;fillColor=#a0522d;strokeColor=#6D1F00;fontStyle=0;fontColor=#ffffff;" parent="WIyWlLk6GJQsqaUBKTNV-1" vertex="1">
          <mxGeometry x="1111" y="613" width="170" height="60" as="geometry" />
        </mxCell>
        <mxCell id="n8c2q8WWlcSVnIIADXBf-89" value="" style="endArrow=none;dashed=1;html=1;rounded=0;exitX=0.5;exitY=0;exitDx=0;exitDy=0;fontStyle=0" parent="WIyWlLk6GJQsqaUBKTNV-1" source="n8c2q8WWlcSVnIIADXBf-88" edge="1">
          <mxGeometry width="50" height="50" relative="1" as="geometry">
            <mxPoint x="1191" y="587" as="sourcePoint" />
            <mxPoint x="1196" y="477" as="targetPoint" />
            <Array as="points">
              <mxPoint x="1201" y="517" />
            </Array>
          </mxGeometry>
        </mxCell>
        <mxCell id="n8c2q8WWlcSVnIIADXBf-90" value="Redirected to thank you screen and saved delivery information for future analysis purpose" style="rounded=1;whiteSpace=wrap;html=1;fontSize=12;glass=0;strokeWidth=2;shadow=0;fillColor=#a0522d;strokeColor=#67AB9F;fontStyle=0;fontColor=#ffffff;" parent="WIyWlLk6GJQsqaUBKTNV-1" vertex="1">
          <mxGeometry x="1111" y="757" width="170" height="60" as="geometry" />
        </mxCell>
      </root>
    </mxGraphModel>
  </diagram>
</mxfile>
